<svg width="40" height="40" viewBox="0 0 40 40" fill="none" xmlns="http://www.w3.org/2000/svg">
<path d="M30.6767 11.7233C32.0022 11.7233 33.0767 10.6488 33.0767 9.32333C33.0767 7.99785 32.0022 6.92333 30.6767 6.92333C29.3512 6.92333 28.2767 7.99785 28.2767 9.32333C28.2767 10.6488 29.3512 11.7233 30.6767 11.7233Z" fill="#414141"/>
<path d="M20 9.73C17.9688 9.73 15.9832 10.3323 14.2943 11.4608C12.6054 12.5893 11.2891 14.1932 10.5118 16.0698C9.73445 17.9464 9.53106 20.0114 9.92734 22.0036C10.3236 23.9958 11.3017 25.8257 12.738 27.262C14.1743 28.6983 16.0042 29.6764 17.9964 30.0727C19.9886 30.4689 22.0536 30.2656 23.9302 29.4882C25.8068 28.7109 27.4107 27.3946 28.5392 25.7057C29.6677 24.0168 30.27 22.0312 30.27 20C30.27 17.2762 29.188 14.664 27.262 12.738C25.336 10.812 22.7238 9.73 20 9.73ZM20 26.6667C18.6815 26.6667 17.3925 26.2757 16.2962 25.5431C15.1999 24.8106 14.3454 23.7694 13.8408 22.5512C13.3362 21.333 13.2042 19.9926 13.4614 18.6994C13.7187 17.4062 14.3536 16.2183 15.286 15.286C16.2183 14.3536 17.4062 13.7187 18.6994 13.4614C19.9926 13.2042 21.333 13.3362 22.5512 13.8408C23.7694 14.3454 24.8106 15.1999 25.5431 16.2962C26.2757 17.3925 26.6667 18.6815 26.6667 20C26.6667 21.7681 25.9643 23.4638 24.714 24.714C23.4638 25.9643 21.7681 26.6667 20 26.6667Z" fill="#414141"/>
<path d="M20 3.60333C25.34 3.60333 25.9733 3.62333 28.0817 3.72C29.3497 3.73505 30.6058 3.96789 31.795 4.40833C32.6578 4.74115 33.4413 5.25091 34.0952 5.9048C34.7491 6.55869 35.2588 7.34223 35.5917 8.205C36.0321 9.39421 36.2649 10.6503 36.28 11.9183C36.3767 14.0267 36.3967 14.66 36.3967 20.0017C36.3967 25.3433 36.3767 25.9733 36.28 28.0817C36.2649 29.3497 36.0321 30.6058 35.5917 31.795C35.2588 32.6578 34.7491 33.4413 34.0952 34.0952C33.4413 34.7491 32.6578 35.2588 31.795 35.5917C30.6058 36.0321 29.3497 36.2649 28.0817 36.28C25.9733 36.3767 25.34 36.3967 20 36.3967C14.66 36.3967 14.0267 36.3767 11.9183 36.28C10.6503 36.2649 9.39421 36.0321 8.205 35.5917C7.34223 35.2588 6.55869 34.7491 5.9048 34.0952C5.25091 33.4413 4.74115 32.6578 4.40833 31.795C3.96789 30.6058 3.73505 29.3497 3.72 28.0817C3.62333 25.9733 3.60333 25.34 3.60333 20C3.60333 14.66 3.62333 14.0267 3.72 11.9183C3.73505 10.6503 3.96789 9.39421 4.40833 8.205C4.74115 7.34223 5.25091 6.55869 5.9048 5.9048C6.55869 5.25091 7.34223 4.74115 8.205 4.40833C9.39421 3.96789 10.6503 3.73505 11.9183 3.72C14.0267 3.62333 14.66 3.60333 20 3.60333ZM20 0C14.5683 0 13.8867 0.0233334 11.7533 0.12C10.0946 0.153494 8.4536 0.467949 6.9 1.05C5.57121 1.56383 4.36443 2.34963 3.35703 3.35703C2.34963 4.36443 1.56383 5.57121 1.05 6.9C0.467764 8.45412 0.153306 10.0957 0.12 11.755C0.0233334 13.8883 0 14.5667 0 20C0 25.4333 0.0233334 26.1133 0.12 28.2467C0.153494 29.9054 0.467949 31.5464 1.05 33.1C1.56383 34.4288 2.34963 35.6356 3.35703 36.643C4.36443 37.6504 5.57121 38.4362 6.9 38.95C8.45412 39.5322 10.0957 39.8467 11.755 39.88C13.8883 39.9767 14.5683 40 20 40C25.4317 40 26.1133 39.9767 28.2467 39.88C29.9059 39.8467 31.5475 39.5322 33.1017 38.95C34.4305 38.4362 35.6372 37.6504 36.6446 36.643C37.652 35.6356 38.4378 34.4288 38.9517 33.1C39.5333 31.5458 39.8472 29.9042 39.88 28.245C39.9767 26.1117 40 25.4333 40 20C40 14.5667 39.9767 13.8867 39.88 11.7533C39.8465 10.0946 39.5321 8.4536 38.95 6.9C38.4362 5.57121 37.6504 4.36443 36.643 3.35703C35.6356 2.34963 34.4288 1.56383 33.1 1.05C31.5458 0.468333 29.9042 0.154439 28.245 0.121667C26.1117 0.0216666 25.4333 0 20 0Z" fill="#414141"/>
</svg>
