<svg width="40" height="40" viewBox="0 0 40 40" fill="none" xmlns="http://www.w3.org/2000/svg">
<path d="M26.146 0H13.874C2.666 0 0 2.666 0 13.854V26.126C0 37.332 2.646 40 13.854 40H26.126C37.332 40 40 37.354 40 26.146V13.874C40 2.666 37.354 0 26.146 0ZM32.292 28.54H29.374C28.27 28.54 27.938 27.646 25.958 25.666C24.23 24 23.5 23.792 23.062 23.792C22.458 23.792 22.292 23.958 22.292 24.792V27.416C22.292 28.126 22.062 28.542 20.208 28.542C18.4087 28.4211 16.6638 27.8744 15.1172 26.9471C13.5705 26.0197 12.2663 24.7382 11.312 23.208C9.04634 20.388 7.46988 17.0783 6.708 13.542C6.708 13.104 6.874 12.708 7.708 12.708H10.624C11.374 12.708 11.644 13.042 11.938 13.812C13.354 17.98 15.77 21.604 16.75 21.604C17.126 21.604 17.29 21.438 17.29 20.5V16.208C17.166 14.25 16.126 14.084 16.126 13.376C16.1394 13.1893 16.2249 13.0151 16.3646 12.8904C16.5042 12.7657 16.6869 12.7002 16.874 12.708H21.458C22.084 12.708 22.292 13.02 22.292 13.77V19.562C22.292 20.188 22.562 20.396 22.75 20.396C23.126 20.396 23.416 20.188 24.104 19.5C25.5817 17.6979 26.7891 15.6902 27.688 13.54C27.7799 13.2817 27.9537 13.0606 28.1831 12.9104C28.4124 12.7602 28.6845 12.6891 28.958 12.708H31.876C32.75 12.708 32.936 13.146 32.75 13.77C31.689 16.1469 30.3761 18.4031 28.834 20.5C28.52 20.98 28.394 21.23 28.834 21.792C29.124 22.23 30.146 23.084 30.834 23.896C31.8338 24.8933 32.6641 26.0471 33.292 27.312C33.542 28.124 33.124 28.542 32.292 28.542V28.54Z" fill="#414141"/>
</svg>
