<svg width="40" height="40" viewBox="0 0 40 40" fill="none" xmlns="http://www.w3.org/2000/svg">
<path d="M34.1709 5.8201C32.328 3.96796 30.133 2.49945 27.7138 1.50022C25.2947 0.500986 22.6997 -0.0089602 20.0804 0.000119139C9.10553 0.000119139 0.160804 8.90009 0.160804 19.8201C0.160804 23.32 1.08543 26.72 2.81407 29.72L0 40L10.5528 37.24C13.4673 38.82 16.7437 39.66 20.0804 39.66C31.0553 39.66 40 30.76 40 19.8401C40 14.5401 37.9296 9.56009 34.1709 5.8201ZM20.0804 36.3C17.1055 36.3 14.191 35.5 11.6382 34L11.0352 33.64L4.76382 35.28L6.43216 29.2L6.03015 28.58C4.37738 25.954 3.49978 22.9185 3.49749 19.8201C3.49749 10.7401 10.9347 3.34011 20.0603 3.34011C24.4824 3.34011 28.6432 5.0601 31.7588 8.18009C33.3015 9.70802 34.524 11.5254 35.3556 13.5269C36.1871 15.5284 36.6111 17.6743 36.603 19.8401C36.6432 28.92 29.206 36.3 20.0804 36.3ZM29.1658 23.98C28.6633 23.74 26.2111 22.5401 25.7688 22.3601C25.3065 22.2001 24.9849 22.1201 24.6432 22.6001C24.3015 23.1 23.3568 24.22 23.0754 24.54C22.794 24.88 22.4925 24.92 21.9899 24.66C21.4874 24.42 19.8794 23.88 17.9899 22.2001C16.5025 20.8801 15.5176 19.2601 15.2161 18.7601C14.9347 18.2601 15.1759 18.0001 15.4372 17.7401C15.6583 17.5201 15.9397 17.1601 16.1809 16.8801C16.4221 16.6001 16.5226 16.3801 16.6834 16.0601C16.8442 15.7201 16.7638 15.4401 16.6432 15.2001C16.5226 14.9601 15.5176 12.5201 15.1156 11.5201C14.7136 10.5601 14.2915 10.6801 13.9899 10.6601H13.0251C12.6834 10.6601 12.1608 10.7801 11.6985 11.2801C11.2563 11.7801 9.96985 12.9801 9.96985 15.4201C9.96985 17.8601 11.7588 20.2201 12 20.5401C12.2412 20.8801 15.5176 25.88 20.5025 28.02C21.6884 28.54 22.6131 28.84 23.3367 29.06C24.5226 29.44 25.608 29.38 26.4724 29.26C27.4372 29.12 29.4271 28.06 29.8291 26.9C30.2513 25.74 30.2513 24.76 30.1105 24.54C29.9698 24.32 29.6683 24.22 29.1658 23.98Z" fill="#414141"/>
</svg>
